<svg width="200" height="200" viewBox="0 0 200 200" fill="none" xmlns="http://www.w3.org/2000/svg">
<circle cx="100" cy="100" r="90" stroke="#39ff14" stroke-width="5" fill="rgba(5,5,5,0.8)"/>
<g transform="translate(100, 100) scale(2.2) rotate(14) translate(-32, -32)">
<path d="M49 41.6a14.4 14.4 0 0 0-7-12.3 12.6 12.6 0 0 0-7-21.1V4h-6v4h-4V4h-6v4h-4v48h4v4h6v-4h4v4h6v-4a14.2 14.2 0 0 0 14-14.4zm-9.5-21a6.6 6.6 0 0 1-6.6 6.6H21V14h11.9a6.6 6.6 0 0 1 6.6 6.6zM34.6 50H21V33.2h14a8.6 8.6 0 0 1 8.2 8.4 8.6 8.6 0 0 1-8.6 8.4z" fill="#39ff14"/>
</g>
</svg>
