<svg width="200" height="200" viewBox="0 0 200 200" fill="none" xmlns="http://www.w3.org/2000/svg">
<circle cx="100" cy="100" r="90" stroke="#39ff14" stroke-width="5" fill="rgba(5,5,5,0.8)"/>
<path d="M136.6 94.3C139.4 85.4 135.4 78.7 125.7 74.2L128.8 61.7L121.3 59.7L118.1 72.2C116.2 71.8 114.1 71.3 112.1 70.9L115.2 58.4L107.6 56.4L104.5 68.9C102.8 68.5 101.2 68.1 99.6 67.8L99.6 67.5L89.1 64.8L86.5 75.2C86.5 75.2 93.8 76.9 93.7 77C95.7 77.5 96.1 78.8 96.1 79.8L90.7 101.3C91.1 101.3 91.5 101.5 92 101.9L90.7 101.6L83.2 131.6C82.7 132.9 81.7 133.5 80.4 133.1C80.4 133.2 73.2 131.4 73.2 131.4L68 143.5L77.9 146.1C79.7 146.5 81.5 147 83.2 147.3L80.1 159.8L87.7 161.8L90.8 149.3C92.9 149.7 94.8 150.2 96.8 150.6L93.7 163.1L101.3 165.1L104.4 152.6C117.3 155.1 127.1 154.6 133.4 141.6C138.5 131.3 137.1 124.6 130.1 119.6C135.2 118.4 139.1 114.6 136.6 94.3ZM116.3 135.9C110.3 137.4 100.9 136.3 96.8 135.2L101.7 115.5C105.8 116.6 115.2 118.3 119.3 117.2C123.5 116.2 124.6 113 123.9 110.3C123.2 107.5 120.8 105.9 116.6 107L102.5 110.5L107.4 90.9L120.7 87.5C124.9 86.4 128.4 88.6 127.7 91.3C127 94.1 123.8 96.1 119.6 97.1L105.5 100.7L102.5 112.9L116.3 135.9Z" fill="#39ff14"/>
</svg>
